<svg
 xmlns="http://www.w3.org/2000/svg"
 xmlns:xlink="http://www.w3.org/1999/xlink"
 width="9px" height="9px">
<path fill-rule="evenodd"  fill="rgb(237, 58, 78)"
 d="M8.713,1.787 L6.251,4.421 L8.723,7.198 C9.079,7.608 9.079,8.274 8.723,8.684 C8.367,9.095 7.790,9.095 7.434,8.684 L4.913,5.852 L2.265,8.685 C1.892,9.094 1.288,9.094 0.915,8.685 C0.542,8.276 0.542,7.613 0.915,7.204 L3.580,4.354 L1.274,1.762 C0.918,1.352 0.918,0.686 1.274,0.276 C1.630,-0.134 2.207,-0.134 2.563,0.276 L4.918,2.922 L7.364,0.306 C7.736,-0.103 8.341,-0.103 8.713,0.306 C9.086,0.715 9.086,1.378 8.713,1.787 Z"/>
</svg>