<svg
 xmlns="http://www.w3.org/2000/svg"
 xmlns:xlink="http://www.w3.org/1999/xlink"
 width="24px" height="24px">
<path fill-rule="evenodd"  fill="rgb(83, 190, 208)"
 d="M23.714,23.714 C23.523,23.905 23.274,24.000 23.024,24.000 C22.775,24.000 22.525,23.905 22.335,23.714 L17.316,18.696 C15.484,20.220 13.133,21.138 10.569,21.138 C4.741,21.138 -0.000,16.397 -0.000,10.569 C-0.000,4.741 4.741,-0.000 10.569,-0.000 C16.397,-0.000 21.138,4.741 21.138,10.569 C21.138,13.132 20.220,15.484 18.696,17.316 L23.714,22.334 C24.095,22.715 24.095,23.333 23.714,23.714 ZM10.569,1.951 C5.817,1.951 1.951,5.817 1.951,10.569 C1.951,15.321 5.817,19.187 10.569,19.187 C15.321,19.187 19.187,15.321 19.187,10.569 C19.187,5.817 15.321,1.951 10.569,1.951 Z"/>
</svg>